<svg xmlns="http://www.w3.org/2000/svg" xmlns:xlink="http://www.w3.org/1999/xlink" width="500" viewBox="0 0 375 374.999991" height="500" preserveAspectRatio="xMidYMid meet"><defs><clipPath id="3f1e48338a"><path d="M 4.734375 99.875 L 195.050781 99.875 L 195.050781 103.644531 L 4.734375 103.644531 Z M 191.273438 103.644531 L 195.050781 103.644531 L 195.050781 286.414062 L 191.273438 286.414062 Z M 4.734375 103.644531 L 8.515625 103.644531 L 8.515625 286.414062 L 4.734375 286.414062 Z M 4.734375 286.414062 L 195.050781 286.414062 L 195.050781 290.191406 L 4.734375 290.191406 Z M 4.734375 286.414062 " clip-rule="nonzero"></path></clipPath><clipPath id="2dfedb64ae"><path d="M 40.582031 161.472656 L 370.6875 161.472656 L 370.6875 268.390625 L 40.582031 268.390625 Z M 40.582031 161.472656 " clip-rule="nonzero"></path></clipPath><clipPath id="7a64288533"><path d="M 174.535156 245.800781 C 168.210938 252.992188 160.140625 256.589844 150.347656 256.589844 C 140.734375 256.589844 132.734375 253.027344 126.359375 245.914062 C 119.984375 238.804688 116.792969 229.046875 116.792969 216.679688 C 116.792969 201.234375 120.117188 190.207031 126.757812 183.597656 C 133.394531 176.988281 141.332031 173.691406 150.546875 173.691406 C 157.035156 173.691406 162.878906 175.40625 168.097656 178.835938 C 173.316406 182.261719 177.265625 187.101562 179.972656 193.324219 C 182.683594 199.546875 184.035156 206.847656 184.035156 215.203125 C 184.035156 228.414062 180.871094 238.613281 174.535156 245.800781 M 370.269531 214.8125 L 341.03125 214.8125 C 341.847656 213.488281 342.878906 212.160156 344.121094 210.855469 C 345.359375 209.546875 348.191406 207.039062 352.578125 203.355469 C 357.835938 198.914062 361.59375 195.40625 363.859375 192.859375 C 366.121094 190.3125 367.742188 187.886719 368.714844 185.578125 C 369.691406 183.265625 370.183594 180.925781 370.183594 178.539062 C 370.183594 173.851562 368.515625 169.921875 365.183594 166.75 C 361.851562 163.578125 357.324219 161.996094 351.601562 161.996094 C 345.9375 161.996094 341.421875 163.464844 338.058594 166.410156 C 334.695312 169.355469 332.753906 173.625 332.246094 179.230469 L 339.765625 180.007812 C 339.792969 176.269531 340.863281 173.339844 342.972656 171.230469 C 345.085938 169.117188 347.910156 168.054688 351.433594 168.054688 C 354.765625 168.054688 357.472656 169.050781 359.546875 171.050781 C 361.621094 173.046875 362.65625 175.492188 362.65625 178.390625 C 362.65625 181.15625 361.519531 184.089844 359.234375 187.1875 C 356.953125 190.285156 352.578125 194.5 346.101562 199.8125 C 341.933594 203.222656 338.730469 206.234375 336.523438 208.835938 C 335.617188 209.90625 334.839844 210.976562 334.136719 212.058594 L 334.136719 196.914062 C 334.136719 185.046875 331.363281 176.257812 325.824219 170.558594 C 320.28125 164.855469 312.363281 161.996094 302.0625 161.996094 C 288.886719 161.996094 278.195312 168.054688 269.984375 180.1875 C 267.964844 174.449219 264.492188 169.988281 259.574219 166.789062 C 254.660156 163.585938 248.351562 162.003906 240.652344 162.003906 C 233.738281 162.003906 227.582031 163.558594 222.164062 166.644531 C 216.75 169.734375 212.421875 173.832031 209.160156 178.917969 L 209.160156 164.34375 L 193.421875 164.34375 L 193.421875 191.800781 C 192.902344 190.417969 192.34375 189.054688 191.71875 187.726562 C 187.890625 179.628906 182.332031 173.3125 175.039062 168.785156 C 167.746094 164.257812 159.554688 161.996094 150.480469 161.996094 C 136.605469 161.996094 125.296875 166.816406 116.527344 176.449219 C 114.046875 179.175781 111.964844 182.226562 110.183594 185.539062 C 109.09375 179.734375 106.320312 174.695312 101.828125 170.425781 C 95.910156 164.796875 87.878906 161.984375 77.734375 161.984375 C 67.679688 161.984375 59.675781 164.601562 53.707031 169.808594 C 47.742188 175.015625 44.304688 182.613281 43.386719 192.578125 L 56.730469 193.949219 C 56.777344 187.308594 58.679688 182.121094 62.429688 178.359375 C 66.183594 174.601562 71.183594 172.734375 77.433594 172.734375 C 83.351562 172.734375 88.152344 174.496094 91.828125 178.039062 C 95.503906 181.582031 97.351562 185.917969 97.351562 191.0625 C 97.351562 195.96875 95.332031 201.175781 91.289062 206.679688 C 87.246094 212.179688 79.480469 219.652344 67.980469 229.085938 C 60.574219 235.148438 54.910156 240.488281 50.992188 245.101562 C 47.070312 249.714844 44.21875 254.410156 42.4375 259.175781 C 41.332031 262.0625 40.828125 265.066406 40.921875 268.191406 L 110.835938 268.191406 L 110.835938 255.726562 L 58.972656 255.726562 C 60.414062 253.371094 62.25 251.019531 64.457031 248.691406 C 66.664062 246.359375 71.675781 241.917969 79.46875 235.375 C 88.796875 227.484375 95.476562 221.28125 99.492188 216.753906 C 101.023438 215.03125 102.332031 213.34375 103.535156 211.679688 C 103.449219 213.25 103.375 214.824219 103.375 216.460938 C 103.375 225.46875 105.25 234.011719 109.007812 242.089844 C 112.769531 250.167969 118.289062 256.542969 125.582031 261.203125 C 132.875 265.859375 141.152344 268.199219 150.40625 268.199219 C 158.949219 268.199219 166.914062 266.089844 174.289062 261.863281 C 181.667969 257.640625 187.378906 251.425781 191.40625 243.207031 C 192.152344 241.683594 192.796875 240.109375 193.414062 238.519531 L 193.414062 268.199219 L 211.019531 268.199219 L 211.019531 214.3125 C 211.019531 204.859375 211.964844 197.625 213.851562 192.605469 C 215.734375 187.585938 218.792969 183.769531 222.988281 181.164062 C 227.183594 178.558594 231.777344 177.253906 236.730469 177.253906 C 243.246094 177.253906 247.945312 179.203125 250.816406 183.125 C 253.683594 187.046875 255.113281 192.90625 255.113281 200.730469 L 255.113281 268.210938 L 272.71875 268.210938 L 272.71875 207.871094 C 272.71875 197.179688 275.136719 189.402344 279.957031 184.546875 C 284.777344 179.6875 290.847656 177.261719 298.140625 177.261719 C 302.183594 177.261719 305.707031 178.210938 308.710938 180.09375 C 311.710938 181.976562 313.777344 184.480469 314.914062 187.574219 C 316.050781 190.671875 316.625 195.738281 316.625 202.785156 L 316.625 268.21875 L 334.136719 268.21875 L 334.136719 221.851562 L 370.25 221.851562 Z M 370.269531 214.8125 " clip-rule="nonzero"></path></clipPath></defs><g clip-path="url(#3f1e48338a)"><path fill="#ffffff" d="M 0 95.140625 L 375.371094 95.140625 L 375.371094 294.921875 L 0 294.921875 Z M 0 95.140625 " fill-opacity="1" fill-rule="nonzero"></path></g><g clip-path="url(#2dfedb64ae)"><g clip-path="url(#7a64288533)"><path fill="#ffffff" d="M 0 95.140625 L 375.371094 95.140625 L 375.371094 294.921875 L 0 294.921875 Z M 0 95.140625 " fill-opacity="1" fill-rule="nonzero"></path></g></g></svg>